<mxfile host="app.diagrams.net" modified="2024-01-12T06:43:35.593Z" agent="Mozilla/5.0 (Windows NT 10.0; Win64; x64) AppleWebKit/537.36 (KHTML, like Gecko) Chrome/120.0.0.0 Safari/537.36" version="22.1.18" etag="Ek2ikelY_9OYHdDfnat2" type="github">
  <diagram name="Page-1" id="aco_66j2ZG0mlYaB7ikd">
    <mxGraphModel>
      <root>
        <mxCell id="0" />
        <mxCell id="1" parent="0" />
      </root>
    </mxGraphModel>
  </diagram>
</mxfile>
